<svg width="24" height="24" viewBox="0 0 24 24" fill="none" xmlns="http://www.w3.org/2000/svg">
<path d="M12.7625 2C13.8875 2.003 14.4585 2.009 14.9515 2.023L15.1455 2.03C15.3695 2.038 15.5905 2.048 15.8575 2.06C16.9215 2.11 17.6475 2.278 18.2845 2.525C18.9445 2.779 19.5005 3.123 20.0565 3.678C20.5651 4.17773 20.9586 4.78247 21.2095 5.45C21.4565 6.087 21.6245 6.813 21.6745 7.878C21.6865 8.144 21.6965 8.365 21.7045 8.59L21.7105 8.784C21.7255 9.276 21.7315 9.847 21.7335 10.972L21.7345 11.718V13.028C21.7369 13.7574 21.7292 14.4868 21.7115 15.216L21.7055 15.41C21.6975 15.635 21.6875 15.856 21.6755 16.122C21.6255 17.187 21.4555 17.912 21.2095 18.55C20.9586 19.2175 20.5651 19.8223 20.0565 20.322C19.5567 20.8307 18.952 21.2242 18.2845 21.475C17.6475 21.722 16.9215 21.89 15.8575 21.94L15.1455 21.97L14.9515 21.976C14.4585 21.99 13.8875 21.997 12.7625 21.999L12.0165 22H10.7075C9.97772 22.0026 9.24798 21.9949 8.51846 21.977L8.32446 21.971C8.08707 21.962 7.84973 21.9517 7.61246 21.94C6.54846 21.89 5.82246 21.722 5.18446 21.475C4.51729 21.2241 3.9129 20.8306 3.41346 20.322C2.9044 19.8224 2.51056 19.2176 2.25946 18.55C2.01246 17.913 1.84446 17.187 1.79446 16.122L1.76446 15.41L1.75946 15.216C1.74102 14.4868 1.73269 13.7574 1.73446 13.028V10.972C1.73169 10.2426 1.73902 9.5132 1.75646 8.784L1.76346 8.59C1.77146 8.365 1.78146 8.144 1.79346 7.878C1.84346 6.813 2.01146 6.088 2.25846 5.45C2.51015 4.7822 2.90468 4.17744 3.41446 3.678C3.91361 3.16955 4.51764 2.77607 5.18446 2.525C5.82246 2.278 6.54746 2.11 7.61246 2.06C7.87846 2.048 8.10046 2.038 8.32446 2.03L8.51846 2.024C9.24765 2.00623 9.97705 1.99857 10.7065 2.001L12.7625 2ZM11.7345 7C10.4084 7 9.1366 7.52678 8.19892 8.46447C7.26124 9.40215 6.73446 10.6739 6.73446 12C6.73446 13.3261 7.26124 14.5979 8.19892 15.5355C9.1366 16.4732 10.4084 17 11.7345 17C13.0605 17 14.3323 16.4732 15.27 15.5355C16.2077 14.5979 16.7345 13.3261 16.7345 12C16.7345 10.6739 16.2077 9.40215 15.27 8.46447C14.3323 7.52678 13.0605 7 11.7345 7ZM11.7345 9C12.1284 8.99993 12.5185 9.07747 12.8825 9.22817C13.2465 9.37887 13.5773 9.5998 13.8559 9.87833C14.1345 10.1569 14.3556 10.4875 14.5064 10.8515C14.6572 11.2154 14.7349 11.6055 14.735 11.9995C14.735 12.3935 14.6575 12.7836 14.5068 13.1476C14.3561 13.5116 14.1352 13.8423 13.8566 14.121C13.5781 14.3996 13.2474 14.6206 12.8835 14.7714C12.5195 14.9223 12.1294 14.9999 11.7355 15C10.9398 15 10.1767 14.6839 9.61414 14.1213C9.05153 13.5587 8.73546 12.7956 8.73546 12C8.73546 11.2044 9.05153 10.4413 9.61414 9.87868C10.1767 9.31607 10.9398 9 11.7355 9M16.9855 5.5C16.6539 5.5 16.336 5.6317 16.1016 5.86612C15.8672 6.10054 15.7355 6.41848 15.7355 6.75C15.7355 7.08152 15.8672 7.39946 16.1016 7.63388C16.336 7.8683 16.6539 8 16.9855 8C17.317 8 17.6349 7.8683 17.8693 7.63388C18.1038 7.39946 18.2355 7.08152 18.2355 6.75C18.2355 6.41848 18.1038 6.10054 17.8693 5.86612C17.6349 5.6317 17.317 5.5 16.9855 5.5Z" fill="white" fill-opacity="0.4"/>
</svg>
