<svg width="24" height="24" viewBox="0 0 24 24" fill="none" xmlns="http://www.w3.org/2000/svg">
<path d="M9.59961 14.9995L14.7896 11.9995L9.59961 8.99951V14.9995ZM21.1596 7.16951C21.2896 7.63951 21.3796 8.26951 21.4396 9.06951C21.5096 9.86951 21.5396 10.5595 21.5396 11.1595L21.5996 11.9995C21.5996 14.1895 21.4396 15.7995 21.1596 16.8295C20.9096 17.7295 20.3296 18.3095 19.4296 18.5595C18.9596 18.6895 18.0996 18.7795 16.7796 18.8395C15.4796 18.9095 14.2896 18.9395 13.1896 18.9395L11.5996 18.9995C7.40961 18.9995 4.79961 18.8395 3.76961 18.5595C2.86961 18.3095 2.28961 17.7295 2.03961 16.8295C1.90961 16.3595 1.81961 15.7295 1.75961 14.9295C1.68961 14.1295 1.65961 13.4395 1.65961 12.8395L1.59961 11.9995C1.59961 9.80951 1.75961 8.19951 2.03961 7.16951C2.28961 6.26951 2.86961 5.68951 3.76961 5.43951C4.23961 5.30951 5.09961 5.21951 6.41961 5.15951C7.71961 5.08951 8.90961 5.05951 10.0096 5.05951L11.5996 4.99951C15.7896 4.99951 18.3996 5.15951 19.4296 5.43951C20.3296 5.68951 20.9096 6.26951 21.1596 7.16951Z" fill="white" fill-opacity="0.4"/>
</svg>
