<svg width="342" height="65" viewBox="0 0 342 65" fill="none" xmlns="http://www.w3.org/2000/svg">
<path d="M38.8442 31.4467L36.1709 31.5658L52.9986 14.5439C52.9986 14.5439 59.9407 20.1654 61.2414 22.8457L61.9165 31.0082L43.5743 31.4309L40.0864 30.1087L38.8442 31.4467Z" fill="#EB539E"/>
<path d="M44.969 32.6924L62.8791 33.2298C62.8791 33.2298 62.7193 38.6039 61.2701 41.4912C59.821 44.3783 52.0012 47.5331 52.0012 47.5331L35.3647 33.0117L38.5849 32.7868L40.3289 34.3293L44.969 32.6924Z" fill="#EF4135"/>
<path d="M53.9546 14.7861L73.6806 15.6631L72.533 30.6387L69.8596 28.9657L69.7764 30.6634L64.495 30.6117C64.495 30.6117 64.2092 24.6395 62.3595 21.3925C60.6717 18.4221 53.9546 14.7861 53.9546 14.7861Z" fill="#FFC425"/>
<path d="M64.1164 34.3054L68.3132 33.0799L68.3717 34.3954L74.0334 32.3604L74.1639 48.8448L54.7529 48.1073C54.7529 48.1073 61.9538 46.16 63.1645 43.2841C64.3751 40.4081 64.1164 34.3054 64.1164 34.3054Z" fill="#00BCE4"/>
<path d="M36.3872 16.6807L49.6167 16.7256L36.5267 28.9131L36.3872 16.6807Z" fill="#0054A4"/>
<path d="M37.1015 36.29L36.0371 50.3663L47.0027 49.332L48.0402 48.0839C48.0402 48.0839 50.628 47.7826 51.1703 47.5713C51.7126 47.3599 37.1015 36.29 37.1015 36.29Z" fill="#54B948"/>
<path d="M81.8647 22.0247H88.6031L90.3471 37.0851H90.4237L92.4778 22.0247H99.917L101.971 37.0851H102.048L103.788 22.0247H110.53L106.269 42.953H98.3663L96.2356 28.1261H96.1592L94.0285 42.953H86.1261L81.8647 22.0247Z" fill="white"/>
<path d="M120.222 43.5008C112.046 43.5008 111.312 38.5061 111.312 32.4691C111.312 26.9713 112.36 21.4736 120.222 21.4736C128.398 21.4736 129.131 26.4683 129.131 32.5093C129.136 38.0191 128.088 43.5008 120.222 43.5008ZM120.222 39.0092C121.809 39.0092 122.159 37.7696 122.159 32.5053C122.159 27.241 121.809 25.9611 120.222 25.9611C118.635 25.9611 118.292 27.2168 118.292 32.5214C118.292 37.8259 118.675 39.0253 120.222 39.0253V39.0092Z" fill="white"/>
<path d="M131.106 22.0248H137.848V25.3532H137.925C138.698 22.8378 140.559 21.4814 142.613 21.4814H143.737V27.9854C143.162 27.8767 142.578 27.8244 141.993 27.8284C139.512 27.8284 138.078 28.7984 138.078 31.5472V42.9693H131.106V22.0248Z" fill="white"/>
<path d="M145.051 15.3253H152.028V42.9668H145.051V15.3253Z" fill="white"/>
<path d="M165.204 15.3253H172.18V42.9668H165.417V40.1013H165.341C164.487 42.4235 163.057 43.5103 160.576 43.5103C155.888 43.5103 154.297 39.7914 154.297 32.0519C154.297 24.1555 156.855 21.4831 160.742 21.4831C162.719 21.4831 164.422 22.2558 165.12 24.3889H165.196L165.204 15.3253ZM163.266 38.3224C164.853 38.3224 165.204 37.0064 165.204 32.5147C165.204 28.0232 164.853 26.6669 163.266 26.6669C161.679 26.6669 161.289 27.983 161.289 32.5147C161.289 37.0466 161.64 38.3264 163.266 38.3264V38.3224Z" fill="white"/>
<path d="M193.172 42.9655C192.964 42.1916 192.821 41.4011 192.745 40.603H192.681C191.908 42.4624 190.047 43.5048 187.952 43.5048C183.768 43.5048 182.136 40.9491 182.136 37.3511C182.136 33.4793 183.494 31.6601 187.952 30.6138L190.704 29.9537C192.214 29.6035 192.758 28.9474 192.758 27.6676C192.758 26.3878 192.177 25.7318 190.977 25.7318C189.66 25.7318 189.04 26.3113 189.003 28.5209H182.962C182.962 22.5201 187.795 21.4736 190.986 21.4736C195.867 21.4736 199.274 22.7495 199.274 28.2109V38.4337C199.274 40.3696 199.351 41.8788 199.935 42.9615L193.172 42.9655ZM192.745 35.379V32.8595H192.681C192.278 33.4028 191.324 33.3625 190.317 33.8294C189.233 34.3325 188.883 35.1455 188.883 36.5381C188.883 37.9306 189.543 38.8201 190.586 38.8201C192.125 38.8241 192.75 37.661 192.75 35.379H192.745Z" fill="white"/>
<path d="M202.162 22.0209H208.904V25.3493H208.98C209.754 22.8339 211.615 21.4775 213.669 21.4775H214.792V27.9814C214.218 27.8728 213.634 27.8205 213.048 27.8245C210.567 27.8245 209.133 28.7945 209.133 31.5433V42.9613H202.162V22.0209Z" fill="white"/>
<path d="M226.412 30.2272C226.412 28.5247 226.255 27.5185 225.949 26.8585C225.682 26.2552 225.054 25.895 224.398 25.969C222.807 25.969 222.344 27.3615 222.344 32.5131C222.344 37.6647 222.807 39.017 224.398 39.017C225.675 39.017 226.412 38.2121 226.412 35.5719V34.2196H232.688C232.688 37.5118 232.184 39.7938 230.826 41.3031C229.469 42.8124 227.303 43.5086 224.383 43.5086C219.038 43.5086 215.356 41.8987 215.356 32.8633C215.356 22.9545 219.501 21.4814 224.733 21.4814C230.932 21.4814 232.676 25.0031 232.676 30.2311L226.412 30.2272Z" fill="white"/>
<path d="M234.626 15.3253H241.602V24.3446H241.678C242.597 22.5332 244.48 21.4163 246.512 21.4791C249.379 21.4791 251.973 22.7951 251.973 27.1699V42.9668H245.009V29.1461C245.009 27.4034 244.546 26.6669 243.306 26.6669C242.065 26.6669 241.602 27.4034 241.602 29.1461V42.9668H234.626V15.3253Z" fill="white"/>
<path d="M261.131 33.6644V36.4132C261.131 38.659 262.062 39.2304 263.032 39.2304C264.272 39.2304 265.006 38.4577 265.006 35.6082H271.285C271.208 40.6793 268.844 43.5047 263.072 43.5047C256.334 43.5047 254.164 40.4861 254.164 32.5092C254.164 24.5323 256.797 21.4775 263.072 21.4775C268.651 21.4775 271.479 23.9568 271.479 31.5393V33.6644H261.131ZM264.965 28.9393C264.965 26.7338 264.498 25.7196 263.028 25.7196C261.558 25.7196 261.127 26.7257 261.127 28.9393V29.869H264.961L264.965 28.9393Z" fill="white"/>
<path d="M273.213 22.0209H279.956V25.3493H280.032C280.805 22.8339 282.666 21.4775 284.72 21.4775H285.844V27.9814C285.27 27.8728 284.685 27.8205 284.1 27.8245C281.619 27.8245 280.189 28.7945 280.189 31.5433V42.9613H273.213V22.0209Z" fill="white"/>
<path d="M288.279 44.748C288.788 44.858 289.308 44.9103 289.829 44.9051C291.573 44.9051 292.153 43.7419 292.153 43.3153C292.103 42.7896 291.999 42.2705 291.843 41.7657L286.305 22.0206H293.51L295.641 36.1513H295.717L297.732 22.0206H304.703L299.065 43.6614C297.824 48.4628 295.927 49.7789 292.17 49.7789C290.695 49.7789 289.418 49.7387 288.254 49.622L288.279 44.748Z" fill="white"/>
</svg>
