<svg width="162" height="70" viewBox="0 0 162 70" fill="none" xmlns="http://www.w3.org/2000/svg">
<path d="M46.6316 54.5H34.5155L37.8811 38.6257H30.9817L27.6161 54.5H15.5L23.0726 18.8809H35.2447L31.9353 34.3626H38.7786L42.0881 18.8809H54.3164L46.6316 54.5ZM82.3762 54.5H69.2505L68.4652 45.5812H58.0879L54.1053 54.5H48.6643L65.2118 18.8809H78.5058L82.3762 54.5ZM59.939 41.4864H68.0725L66.7824 26.2291L59.939 41.4864ZM86.5518 18.8809H99.3411L101.248 43.0009L112.916 18.8809H118.469L101.865 54.5H88.6273L86.5518 18.8809ZM117.587 18.8809H130.376L132.283 43.0009L143.951 18.8809H149.504L132.9 54.5H119.662L117.587 18.8809Z" fill="white"/>
</svg>
