<svg width="45" height="23" viewBox="0 0 45 23" fill="none" xmlns="http://www.w3.org/2000/svg">
<path d="M10.3376 18H6.31432L7.4319 12.7288H5.14086L4.02328 18H0L2.51455 6.17229H6.55646L5.45751 11.3132H7.72992L8.82887 6.17229H12.8894L10.3376 18ZM22.207 18H17.8484L17.5877 15.0384H14.1418L12.8193 18H11.0126L16.5073 6.17229H20.9218L22.207 18ZM14.7565 13.6787H17.4573L17.0289 8.61234L14.7565 13.6787ZM23.5936 6.17229H27.8404L28.4736 14.1816L32.3479 6.17229H34.1919L28.6785 18H24.2827L23.5936 6.17229ZM33.8991 6.17229H38.1459L38.7792 14.1816L42.6534 6.17229H44.4974L38.984 18H34.5882L33.8991 6.17229Z" fill="white"/>
</svg>
