<svg width="64" height="24" viewBox="0 0 64 24" fill="none" xmlns="http://www.w3.org/2000/svg">
<path d="M20.6102 23.2727L11.0253 11.1822L20.2633 0H13.755L4.95606 11.0673V0H0V23.2727H4.95606V11.3084L13.5788 23.2727H20.6102Z" fill="white"/>
<path d="M55.5185 9.10501C56.9561 9.10501 63.0757 10.0301 63.0757 16.1272C63.0757 22.5775 56.903 23.2727 56.903 23.2727H42.4655V19.4995C49.4353 19.5051 53.3062 19.5079 54.0809 19.5079C57.4484 19.5079 57.4148 16.287 57.4148 16.287C57.4148 12.7577 53.4348 12.9006 53.4348 12.9006H48.9878C46.9461 12.9006 41.6824 12.1634 41.6824 6.71383C41.6824 0.162588 48.2047 0 48.2047 0H61.4227V3.71994C54.9144 3.72835 51.2952 3.73115 50.5736 3.73115C47.0664 3.73115 47.1223 6.45873 47.1223 6.45873C47.1223 6.45873 47.1531 9.11903 50.1905 9.11903L55.5185 9.10501Z" fill="white"/>
<path d="M31.5619 19.4855H25.736V12.9399C30.0488 12.9427 32.4429 12.9427 32.924 12.9427C32.924 12.9427 36.5543 13.0772 36.5543 16.1749C36.5543 19.2669 33.833 19.4855 31.5619 19.4855ZM25.736 3.7788H32.1297C32.1297 3.7788 35.6034 3.62182 35.6034 6.5148C35.6034 9.00129 33.419 9.16669 32.7114 9.21434H25.736V3.7788ZM35.0188 23.2727C38.5121 23.2727 41.6838 20.7105 41.6838 16.772C41.6838 12.2783 38.3695 10.8767 38.3695 10.8767C38.3695 10.8767 41.0041 9.97123 40.7552 5.93732C40.3972 0.0953133 33.8134 0 33.8134 0H21.0457V23.2615C21.0457 23.2615 32.0793 23.2727 35.0188 23.2727Z" fill="white"/>
</svg>
