<svg width="66" height="23" viewBox="0 0 66 23" fill="none" xmlns="http://www.w3.org/2000/svg">
<g clip-path="url(#clip0_1836_21258)">
<path d="M-0.220703 22.4999H5.22893V6.22015H8.34669V22.4999H13.7745V6.22015H16.8923V22.4999H22.3181V5.34162C22.3181 4.43049 22.2018 3.64376 21.9691 2.98141C21.7496 2.34148 21.4061 1.77153 20.9665 1.31744C20.4909 0.854426 19.9379 0.515826 19.3438 0.323918C18.6444 0.0982458 17.9218 -0.0105055 17.197 0.000826395H4.90176C4.17648 -0.0106826 3.45342 0.0980706 2.75363 0.323918C2.16428 0.512045 1.61709 0.851227 1.15079 1.31744C0.700725 1.76563 0.349566 2.33671 0.127624 2.98141C-0.104594 3.64428 -0.220703 4.43102 -0.220703 5.34162V22.4999ZM65.7883 0.000826395H52.382C51.5677 0.000826395 50.8439 0.125734 50.2107 0.37555C49.5775 0.625366 49.0514 0.973752 48.6324 1.42071C48.2079 1.88992 47.8798 2.46795 47.6733 3.11049C47.4477 3.81496 47.3356 4.56324 47.3428 5.31658V17.2624C47.3392 17.9648 47.4399 18.6625 47.6403 19.3237C47.8306 19.9492 48.1403 20.5143 48.5451 20.9752C48.9518 21.4566 49.4786 21.8305 50.1255 22.097C50.7723 22.3635 51.5536 22.4968 52.4693 22.4968H65.8756V16.3854H52.9709V6.16773H65.7883V0.000826395ZM45.82 16.4887C45.82 15.4227 45.6457 14.5066 45.2971 13.7404C44.9521 12.9805 44.4494 12.3368 43.8364 11.8699C43.2112 11.388 42.47 11.0355 41.6129 10.8123C40.6957 10.5813 39.7601 10.4687 38.8224 10.4767C39.5261 10.4756 40.2277 10.3849 40.915 10.206C41.5853 10.0383 42.2267 9.73731 42.8119 9.31572C43.3589 8.9253 43.8216 8.38965 44.1636 7.75112C44.5117 7.1065 44.686 6.31976 44.6864 5.3909C44.6864 4.47874 44.5448 3.6873 44.2614 3.01661C43.9766 2.3439 43.5531 1.76703 43.03 1.33935C42.492 0.891871 41.8416 0.560695 41.0789 0.345823C40.2382 0.121457 39.3794 0.00578034 38.5177 0.000826395H25.2191V22.4999H38.6261C39.5423 22.5037 40.4564 22.3957 41.3538 22.1776C42.1699 21.989 42.9525 21.6354 43.6672 21.1324C44.3087 20.6659 44.8468 20.0249 45.237 19.2627C45.6292 18.4971 45.8253 17.5724 45.8253 16.4887H45.82ZM38.8224 16.3596H30.7586V6.18964H38.8224V16.3596Z" fill="white"/>
</g>
<defs>
<clipPath id="clip0_1836_21258">
<rect width="66" height="23" fill="white"/>
</clipPath>
</defs>
</svg>
