<svg width="14" height="14" viewBox="0 0 14 14" fill="none" xmlns="http://www.w3.org/2000/svg">
<g clip-path="url(#clip0_1589_21650)">
<path d="M5.54199 9.09068V4.90935C5.54208 4.85703 5.55624 4.8057 5.58298 4.76074C5.60972 4.71577 5.64807 4.67883 5.69399 4.65378C5.73992 4.62873 5.79174 4.61649 5.84402 4.61835C5.89631 4.62021 5.94713 4.63609 5.99116 4.66435L9.24383 6.75443C9.28501 6.78082 9.3189 6.81714 9.34237 6.86005C9.36584 6.90297 9.37814 6.9511 9.37814 7.00001C9.37814 7.04893 9.36584 7.09705 9.34237 7.13997C9.3189 7.18288 9.28501 7.21921 9.24383 7.24559L5.99116 9.33626C5.94713 9.36451 5.89631 9.3804 5.84402 9.38226C5.79174 9.38412 5.73992 9.37188 5.69399 9.34683C5.64807 9.32178 5.60972 9.28483 5.58298 9.23987C5.55624 9.19491 5.54208 9.14358 5.54199 9.09126V9.09068Z" fill="white"/>
<path d="M0.583008 6.99992C0.583008 3.45617 3.45592 0.583252 6.99967 0.583252C10.5434 0.583252 13.4163 3.45617 13.4163 6.99992C13.4163 10.5437 10.5434 13.4166 6.99967 13.4166C3.45592 13.4166 0.583008 10.5437 0.583008 6.99992ZM6.99967 1.45825C5.52993 1.45825 4.12039 2.0421 3.08112 3.08137C2.04186 4.12063 1.45801 5.53018 1.45801 6.99992C1.45801 8.46966 2.04186 9.8792 3.08112 10.9185C4.12039 11.9577 5.52993 12.5416 6.99967 12.5416C8.46942 12.5416 9.87896 11.9577 10.9182 10.9185C11.9575 9.8792 12.5413 8.46966 12.5413 6.99992C12.5413 5.53018 11.9575 4.12063 10.9182 3.08137C9.87896 2.0421 8.46942 1.45825 6.99967 1.45825Z" fill="white"/>
</g>
<defs>
<clipPath id="clip0_1589_21650">
<rect width="14" height="14" fill="white"/>
</clipPath>
</defs>
</svg>
