<svg width="55" height="23" viewBox="0 0 55 23" fill="none" xmlns="http://www.w3.org/2000/svg">
<path d="M13.1787 10.8429L7.42905 5.84633C7.22667 5.67667 7.06451 5.46829 6.95325 5.23492C6.84199 5.00155 6.78416 4.74848 6.78357 4.49239C6.7992 3.97798 7.02949 3.49045 7.4239 3.13679C7.81831 2.78313 8.34463 2.59221 8.88737 2.60592H15.2466V0H5.52248C2.53412 0 0 1.92612 0 4.93993C0.0036658 6.18967 0.525255 7.388 1.45234 8.27664L8.22396 14.3326C8.55102 14.568 8.79673 14.8903 8.92978 15.2586C9.06283 15.6268 9.0772 16.0243 8.97105 16.4003C8.57061 17.6863 6.84334 17.6863 6.19785 17.6863H0V22.9718H9.40137C13.2026 22.9718 16.2865 20.2129 16.2865 16.8139V16.7686C16.3941 14.2249 14.9478 12.4008 13.1787 10.8429Z" fill="white"/>
<path d="M51.1312 10.8429L45.3875 5.84633C45.1832 5.6779 45.0193 5.46989 44.9069 5.23633C44.7945 5.00277 44.7363 4.74909 44.7361 4.49239C44.7438 4.23718 44.8045 3.98592 44.9148 3.75297C45.025 3.52001 45.1826 3.30994 45.3785 3.13474C45.5745 2.95955 45.8049 2.82267 46.0567 2.73193C46.3085 2.64119 46.5766 2.59838 46.8459 2.60592H53.1991V0H43.481C40.4926 0 37.9585 1.92612 37.9585 4.93993C37.9622 6.18967 38.4837 7.388 39.4108 8.27664L46.1765 14.3326C46.5035 14.568 46.7492 14.8903 46.8823 15.2586C47.0153 15.6268 47.0297 16.0243 46.9236 16.4003C46.5291 17.692 44.8018 17.692 44.1504 17.692H37.9585V22.9718H47.3599C51.1611 22.9718 54.245 20.2186 54.245 16.8139V16.7686C54.3466 14.2249 52.9062 12.4008 51.1312 10.8429Z" fill="white"/>
<path d="M36.6431 16.3036C36.665 14.8782 36.2052 13.4835 35.3309 12.3236C34.4566 11.1636 33.2137 10.2992 31.784 9.85681C32.9055 9.5894 33.8932 8.95901 34.5763 8.07459C35.2595 7.19018 35.5952 6.10732 35.5254 5.01319C35.529 4.25944 35.342 3.51583 34.9802 2.84463C34.6183 2.17343 34.0921 1.59415 33.4455 1.15529C31.6166 -0.0343691 28.8853 0.0562724 28.8853 0.0562724H18.1272V22.9997H29.5427C31.2244 22.9367 32.8435 22.3783 34.1747 21.4022C34.9452 20.7677 35.5639 19.9847 35.9896 19.1055C36.4152 18.2263 36.638 17.271 36.6431 16.3036ZM23.9425 2.6452H26.5125C26.907 2.6452 29.5965 2.6452 29.8236 5.13216C29.979 6.91099 28.706 8.02134 26.638 8.02134H23.9425V2.6452ZM27.0325 17.6916H23.9425V11.5563H26.9309C27.3194 11.5563 30.3257 11.5563 30.5468 14.3889C30.6902 16.4283 29.1004 17.6916 27.0325 17.6916Z" fill="white"/>
</svg>
