<svg width="53" height="53" viewBox="0 0 53 53" fill="none" xmlns="http://www.w3.org/2000/svg">
<path d="M46.3752 13.2493H29.6139L36.8793 5.98393L35.3335 4.41602L26.5002 13.2493L17.6668 4.41602L16.0989 5.98393L23.3864 13.2493H6.62516C5.45379 13.2493 4.33039 13.7147 3.50211 14.543C2.67382 15.3712 2.2085 16.4946 2.2085 17.666V44.166C2.2085 46.5952 4.196 48.5827 6.62516 48.5827H46.3752C48.8043 48.5827 50.7918 46.5952 50.7918 44.166V17.666C50.7918 16.4946 50.3265 15.3712 49.4982 14.543C48.6699 13.7147 47.5465 13.2493 46.3752 13.2493ZM46.3752 44.166H6.62516V17.666H46.3752V44.166ZM19.8752 22.0827V39.7494L35.3335 30.916L19.8752 22.0827Z" fill="#FF0000"/>
</svg>
