<svg width="18" height="18" viewBox="0 0 18 18" fill="none" xmlns="http://www.w3.org/2000/svg">
<path d="M9.0003 11.4044C10.3853 11.4044 11.5081 10.2816 11.5081 8.89655C11.5081 7.51151 10.3853 6.38872 9.0003 6.38872C7.61526 6.38872 6.49246 7.51151 6.49246 8.89655C6.49246 10.2816 7.61526 11.4044 9.0003 11.4044Z" fill="white"/>
<path fill-rule="evenodd" clip-rule="evenodd" d="M0.0752456 8.43402C1.31851 4.69652 4.8439 2 9.00073 2C13.1556 2 16.6797 4.69402 17.9245 8.4288C18.0251 8.73063 18.0252 9.0572 17.9248 9.35909C16.6815 13.0966 13.1561 15.7931 8.99927 15.7931C4.84437 15.7931 1.32033 13.0991 0.0755195 9.36431C-0.0250796 9.06248 -0.0251753 8.73591 0.0752456 8.43402ZM13.389 8.89655C13.389 11.3204 11.4241 13.2853 9.0003 13.2853C6.57648 13.2853 4.61158 11.3204 4.61158 8.89655C4.61158 6.47273 6.57648 4.50784 9.0003 4.50784C11.4241 4.50784 13.389 6.47273 13.389 8.89655Z" fill="white"/>
</svg>
